<svg xmlns="http://www.w3.org/2000/svg" xmlns:xlink="http://www.w3.org/1999/xlink" xmlns:lucid="lucid" width="640" height="240"><g transform="translate(-576 -352)" lucid:page-tab-id="0_0"><path d="M782.5 374.22H1200V456H782.5z" stroke="#000" stroke-opacity="0" stroke-width="4" fill="#fff" fill-opacity="0"/><use xlink:href="#a" transform="matrix(1,0,0,1,782.5,374.2222222222222) translate(11.879999999999995 78.22222222222223)"/><use xlink:href="#b" transform="matrix(1,0,0,1,782.5,374.2222222222222) translate(277.8355555555556 78.22222222222223)"/><path d="M811 465h360v80H811z" stroke="#000" stroke-opacity="0" stroke-width="4" fill="#fff" fill-opacity="0"/><use xlink:href="#c" transform="matrix(1,0,0,1,816,470) translate(2.734375 29.347656249999996)"/><use xlink:href="#d" transform="matrix(1,0,0,1,816,470) translate(174.31640625 29.347656249999996)"/><use xlink:href="#e" transform="matrix(1,0,0,1,816,470) translate(25.01953124999997 61.734809027777786)"/><use xlink:href="#f" transform="matrix(1,0,0,1,816,470) translate(61.84244791666664 61.734809027777786)"/><use xlink:href="#g" transform="matrix(1,0,0,1,816,470) translate(116.18055555555554 61.734809027777786)"/><use xlink:href="#h" transform="matrix(1,0,0,1,816,470) translate(179.99782986111111 61.734809027777786)"/><path d="M737.5 460.05c0 31.3-24.62 56.7-55 56.7s-55-25.4-55-56.7c0-31.3 24.62-56.7 55-56.7s55 25.4 55 56.7z" stroke="#99d2f2" stroke-width="6" fill-opacity="0"/><path d="M655 403.35c0 7.83-6.16 14.17-13.75 14.17-7.6 0-13.75-6.34-13.75-14.17s6.16-14.18 13.75-14.18c7.6 0 13.75 6.35 13.75 14.18zM641.25 502.57c0 7.83-6.16 14.18-13.75 14.18-7.6 0-13.75-6.35-13.75-14.18 0-7.82 6.16-14.17 13.75-14.17 7.6 0 13.75 6.35 13.75 14.17zM627.5 445.87c0 7.83-6.16 14.18-13.75 14.18-7.6 0-13.75-6.35-13.75-14.18 0-7.82 6.16-14.17 13.75-14.17 7.6 0 13.75 6.35 13.75 14.17zM751.25 417.52c0 7.83-6.16 14.18-13.75 14.18-7.6 0-13.75-6.35-13.75-14.18 0-7.82 6.16-14.17 13.75-14.17 7.6 0 13.75 6.35 13.75 14.17zM710 389.17c0 7.83-6.16 14.18-13.75 14.18-7.6 0-13.75-6.35-13.75-14.18 0-7.82 6.16-14.17 13.75-14.17 7.6 0 13.75 6.35 13.75 14.17zM682.5 530.92c0 7.83-6.16 14.18-13.75 14.18-7.6 0-13.75-6.35-13.75-14.18 0-7.82 6.16-14.17 13.75-14.17 7.6 0 13.75 6.35 13.75 14.17zM765 467.14c0 7.83-6.16 14.17-13.75 14.17-7.6 0-13.75-6.33-13.75-14.16s6.16-14.18 13.75-14.18c7.6 0 13.75 6.35 13.75 14.18zM737.5 516.75c0 7.83-6.16 14.17-13.75 14.17-7.6 0-13.75-6.34-13.75-14.17s6.16-14.18 13.75-14.18c7.6 0 13.75 6.35 13.75 14.18z" stroke="#99d2f2" stroke-width="6" fill-opacity="0"/><path d="M727.2 460.05c0 25.44-20.02 46.07-44.7 46.07-24.68 0-44.7-20.63-44.7-46.07s20.02-46.07 44.7-46.07c24.68 0 44.7 20.63 44.7 46.07z" stroke="#99d2f2" stroke-width="5" fill-opacity="0"/><path d="M710 445.87c0 3.92-3.08 7.1-6.88 7.1s-6.87-3.18-6.87-7.1c0-3.9 3.08-7.08 6.87-7.08 3.8 0 6.88 3.16 6.88 7.07z" stroke="#99d2f2" stroke-width="2" fill-opacity="0"/><path d="M706.56 438.8c0 3.9-3.08 7.07-6.87 7.07-3.8 0-6.9-3.17-6.9-7.08 0-3.93 3.1-7.1 6.9-7.1 3.78 0 6.86 3.17 6.86 7.1zM668.75 474.22c0 3.92-3.08 7.1-6.88 7.1s-6.87-3.18-6.87-7.1c0-3.9 3.08-7.08 6.88-7.08s6.87 3.17 6.87 7.08zM701.06 467.14c0 3.9-3.08 7.08-6.87 7.08-3.8 0-6.9-3.17-6.9-7.08 0-3.92 3.1-7.1 6.9-7.1 3.78 0 6.86 3.18 6.86 7.1z" stroke="#99d2f2" stroke-width="2" fill-opacity="0"/><path d="M710 468.2c0 3.9-3.08 7.1-6.88 7.1s-6.87-3.2-6.87-7.1c0-3.9 3.08-7.1 6.87-7.1 3.8 0 6.88 3.2 6.88 7.1z" stroke="#99d2f2" stroke-width="2" fill-opacity="0"/><path d="M710 477.77c0 3.9-3.08 7.1-6.88 7.1s-6.87-3.2-6.87-7.1c0-3.92 3.08-7.1 6.87-7.1 3.8 0 6.88 3.18 6.88 7.1zM671.5 441.98c0 3.9-3.08 7.08-6.88 7.08s-6.87-3.17-6.87-7.08c0-3.92 3.08-7.1 6.88-7.1s6.87 3.18 6.87 7.1z" stroke="#99d2f2" stroke-width="2" fill-opacity="0"/><path d="M682.5 438.8c0 3.9-3.08 7.07-6.88 7.07s-6.87-3.17-6.87-7.08c0-3.93 3.08-7.1 6.88-7.1s6.87 3.17 6.87 7.1z" stroke="#99d2f2" stroke-width="2" fill-opacity="0"/><path d="M680.44 452.25c0 3.92-3.08 7.1-6.88 7.1s-6.87-3.18-6.87-7.1c0-3.9 3.07-7.08 6.86-7.08 3.8 0 6.88 3.17 6.88 7.08zM685.25 491.94c0 3.92-3.08 7.1-6.88 7.1s-6.87-3.18-6.87-7.1c0-3.9 3.08-7.08 6.88-7.08s6.87 3.17 6.87 7.08z" stroke="#99d2f2" stroke-width="2" fill-opacity="0"/><defs><path fill="#19967d" d="M50-536c0-69 102-81 166-60l5 5c-3 73 3 134 10 201 39-6 70 7 70-30 0-47 2-105 20-136 16-29 44-31 70-50 32-1 60 8 96 5 42 113 30 310 30 462 0 19 6 35 5 56-17 22-41 43-55 65-22 14-60 24-96 25-28-55-26-151-35-231l-5-5c-33 2-74-5-95 10-3 54 6 97 5 151-30 17-45 49-76 65-30 3-76 20-105 5-14-89 3-200 0-302 0-25-10-211-10-236zm40 5c2 164 8 324 0 483 3 5 1 22 10 20 26-3 47-2 55-15 8-61 13-125 10-196 24-28 113-17 156-30 16 3 39 3 40 20 24 53 12 145 30 211 8 10 41 6 46-5 3-22 8-51 0-71 0-134-10-272-10-402 0-20-70-6-71 0-11 51 2 148-30 181-51 6-98 15-155 15-9-3-15-9-21-15v-191c-12-6-40-5-60-5" id="i"/><path fill="#19967d" d="M81 2C58 4 67-54 62-73c-5-130-11-318-25-425v-50c20-22 48-34 74-50 14-1 50 6 64 5l20 35c5 54 0 321 15 395-2 24 4 48 5 70-15 28-27 60-45 85-22 11-60 7-89 10zm-4-525c-3 116 14 239 14 350 0 41 4 105 10 140 20 0 49 3 55-10 0-38 2-77-10-105l-15-380c-20-1-39 1-54 5" id="j"/><path fill="#19967d" d="M92-584c38 3 81-10 100 15 4 65 11 123 30 169 9 22 8 71 20 85 4-59 29-99 30-159 11-27 7-75 35-85 36-36 118-25 165-5 19 53-20 129-35 179-16 54-29 116-50 165-25 59-28 133-75 169-23 39-89 33-150 40-29-39-35-106-60-149 0-13-4-21-10-25-12-49-32-90-40-145l5-15c-16-3-15-24-15-45-20-18-11-62-30-84-1-19-22-44 0-60 23-19 51-38 80-50zm90 533c13-1 43 11 50 0 10 2 31-4 35-5 39-115 57-232 105-349 4-29 26-65 30-94-25-5-55-6-85-5-13 76-30 161-45 234-8 39-26 72-25 124-5 8-24 25-30 5-26-45-28-126-55-179-9-67-25-123-30-194l-5-5c-29 2-69-5-90 5 45 157 81 325 145 463" id="k"/><path fill="#19967d" d="M-11-10C-29-72 9-129 24-181c12-41 36-100 45-140 14-13 18-49 30-65 22-50 41-100 60-151 7-18 32-36 45-50 45 0 89-3 115 20 3 59-37 107-50 161-23 47-34 100-55 150-22 51-46 144-65 196-13 14-21 39-40 45-32 1-87 7-120 5zm200-497c-41 82-71 165-100 261-30 50-42 106-55 171-4 7-7 16-10 25h65c15-51 32-98 50-151 24-71 53-153 85-220 5-28 17-62 20-91-21-1-39 1-55 5" id="l"/><path fill="#19967d" d="M147-518c0-44 38-62 65-80 5 1 66-12 75 0 33-1 63 7 65 40 40 125 55 274 100 395 1 50-18 89-25 135H322c-8-3-8-26-10-35-15-27-26-62-30-100-24 4-66 3-80 15-3 25-10 81-25 95-12 12-20 27-40 30C124-3 77-9 52 2H17c-6-62 19-98 30-155 17-89 48-180 75-265 2-37 25-63 25-100zm200 265c-33-87-23-211-70-280-37-1-74-1-100 10C145-372 98-231 62-83c-6 8-12 38-15 50 37-1 70-7 70-50 0-34 14-58 20-90 48 1 105-24 155-20 1 0 17 10 20 15 4 36 24 100 30 120h55c-13-39-29-76-30-130-8-10-11-39-20-65zm-75 15c-42-2-76 8-120 5-20-6-9-45-5-65 17-87 26-131 60-190 8-23 31 2 40 10 3 58 23 98 30 155 11 24 30 61 15 95-10 1-13-4-20-10zm-35-135c-8-12-8 15-15 20-3 15-14 35-10 55 20 0 51 5 35-20-2-16-5-43-10-55" id="m"/><path fill="#19967d" d="M447-198c0 33-28 69-45 95C342-15 231 25 79 22l-10-5C58-164 41-350 54-538c2-24 31-31 50-45 20-15 32-38 66-35 86 6 147-2 186 50 10 25 29 43 36 70-3 33 9 66-11 85-5 13-24 34-25 50 28 13 62 24 71 50 30 15 20 73 20 115zM109-13c88 0 160-14 207-55 41-36 94-93 71-180-25-31-59-49-116-50-19-33 34-38 45-60 35-37 35-138-10-165-32-39-136-38-186-15-16 3-31 6-46 10 0 122 15 238 15 350 0 53 2 108 10 155zm192-235c40 31 28 105-5 130-20 28-43 54-86 60-14 7-32 12-55 10-4-64-1-128-20-180 1-12-3-29 5-35 34-25 106-29 141 0 0 0 15 10 20 15zm-35-240c30 11 37 59 20 85-16 17-33 58-66 55-17 10-51 11-60 30-26-8-19-52-30-75-14-29-10-54-10-90 34-19 115-29 146-5zm20 270c-9-17-48-35-76-35-1 42 0 82 5 120 18 0 29-8 46-10 18-15 43-39 25-75zM180-468c0 23-2 48 10 60 19-11 49-13 66-25 9-42-39-34-76-35" id="n"/><g id="a"><use transform="matrix(0.09777777777777778,0,0,0.09777777777777778,0,0)" xlink:href="#i"/><use transform="matrix(0.09777777777777778,0,0,0.09777777777777778,52.995555555555555,0)" xlink:href="#j"/><use transform="matrix(0.09777777777777778,0,0,0.09777777777777778,74.89777777777778,0)" xlink:href="#k"/><use transform="matrix(0.09777777777777778,0,0,0.09777777777777778,121.73333333333333,0)" xlink:href="#l"/><use transform="matrix(0.09777777777777778,0,0,0.09777777777777778,151.26222222222222,0)" xlink:href="#m"/><use transform="matrix(0.09777777777777778,0,0,0.09777777777777778,197.02222222222224,0)" xlink:href="#n"/></g><path fill="#19967d" d="M78-11c-2-132-25-230-25-375v-160c23-24 40-55 75-60 61-9 128-5 195-5 21 30 36 62 35 115-33 5-30 35-75 35-31 0-59 4-85 15 1 21-3 46 5 60 40 3 88-14 125 0-3 49 10 110-20 135-27 13-67 12-95 25-2 21 2 42 5 60 60 4 105-7 165-5 37 19 18 103-10 120-19 22-29 31-75 35-68 6-119 32-200 25-8 0-17-11-20-20zm170-270c14-57-61-23-95-40-23-37-31-92-30-155 46-8 89-14 140-20 18-2 11-37-10-35-55 6-110 5-165 15-2 68 4 209 5 280 13 47 14 147 20 210 75 6 116-19 185-25 30 4 32-30 15-45-48 2-105-8-135 15-42 6-27-56-35-90-6-25-6-55-5-85 27-15 88-7 110-25" id="o"/><path fill="#19967d" d="M82-64c-58-62-54-202-45-310 19-51 30-109 65-145 18-18 31-42 59-50 44-32 126-60 194-25 44 7 60 56 75 90 31 68 32 194 10 275-13 46-20 104-45 145-27 18-34 58-69 65-15 23-53 14-80 25-54 1-97-6-129-30zm154-485c-41-9-59 23-85 30-21 31-51 55-59 95-5 25-25 100-25 105-3 89 2 172 35 230 26 18 36 48 74 55 35-4 81 11 95-15 29-32 60-53 75-105 21-72 14-183 14-275 0-54-20-95-59-115-11-11-49-15-65-5zm30 400c-5 24-32 36-50 50-45 1-76-14-80-55-32-95-24-253 30-315 13-27 31-29 70-35 38 6 50 33 60 70-3 83 11 176-15 240-4 10-15 40-15 45zm-30-305c-42 70-58 179-35 280 5 17 19 36 30 15 14-14 26-80 30-95v-175c-1-5-13-45-25-25" id="p"/><g id="b"><use transform="matrix(0.09777777777777778,0,0,0.09777777777777778,0,0)" xlink:href="#o"/><use transform="matrix(0.09777777777777778,0,0,0.09777777777777778,37.644444444444446,0)" xlink:href="#k"/><use transform="matrix(0.09777777777777778,0,0,0.09777777777777778,82.42666666666668,0)" xlink:href="#p"/></g><path fill="#999" d="M28-165h167v-1028H28v-164h505v164H362v1028h171V0H28v-165" id="q"/><path fill="#999" d="M530-826c-179 0-312 160-312 342V0H53v-970h165v127c78-99 182-148 312-148 289 0 456 203 456 499V0H819v-484c2-203-95-342-289-342" id="r"/><path fill="#999" d="M395 0C260 4 152-110 152-245v-560H6v-165c76 0 121-15 136-44 7-13 10-65 10-156h165v200h235v165H317v560c-9 115 138 72 235 80V0H395" id="s"/><path fill="#999" d="M535-805c-177 0-317 145-317 321V0H51v-970h167v134c85-89 189-134 310-134h218v218c-83-35-153-53-211-53" id="t"/><path fill="#999" d="M484-144c91 0 275-43 275-120v-184c-54 18-283 13-339 27-84 21-172 73-172 157 0 80 79 120 236 120zm27-847c168 0 413 106 413 260v563c0 15 16 23 48 26-4 64-6 118-6 163-81-4-138-29-172-76-80 51-181 76-304 76C213 21 75-75 75-266c0-155 132-276 270-302-15-8 340-16 395-49 13-7 20-20 21-39-1 24-2 8-2-49 0-71-154-124-234-124-152 0-248 58-288 173L79-690c32-191 203-301 432-301" id="u"/><path fill="#999" d="M223-484c0 174 142 340 313 340 169 0 319-168 319-340 0-174-147-342-319-342-173 0-313 166-313 342zm798 0c0 261-225 505-485 505-129 0-235-50-318-149v516H53V-970h165v128c83-99 189-149 318-149 260 0 485 246 485 507" id="v"/><path fill="#999" d="M233-1172c-50 0-96-44-96-94 0-49 46-93 96-93s96 43 96 93c0 52-44 94-96 94zM26-970h289V0H150v-805H26v-165" id="w"/><path fill="#999" d="M816-616c-46-109-154-210-294-210-133 0-258 109-301 210h595zM31-484c0-260 230-507 491-507 282 0 495 254 487 541H196c10 148 163 311 326 306 147-5 277-104 326-215l166 28C947-150 753 16 522 21 260 27 31-223 31-484" id="x"/><g id="c"><use transform="matrix(0.015190972222222224,0,0,0.015190972222222224,0,0)" xlink:href="#q"/><use transform="matrix(0.015190972222222224,0,0,0.015190972222222224,9.752604166666668,0)" xlink:href="#r"/><use transform="matrix(0.015190972222222224,0,0,0.015190972222222224,27.176649305555557,0)" xlink:href="#s"/><use transform="matrix(0.015190972222222224,0,0,0.015190972222222224,36.92925347222223,0)" xlink:href="#t"/><use transform="matrix(0.015190972222222224,0,0,0.015190972222222224,49.188368055555564,0)" xlink:href="#u"/><use transform="matrix(0.015190972222222224,0,0,0.015190972222222224,65.83767361111111,0)" xlink:href="#v"/><use transform="matrix(0.015190972222222224,0,0,0.015190972222222224,83.20095486111111,0)" xlink:href="#u"/><use transform="matrix(0.015190972222222224,0,0,0.015190972222222224,99.12109375,0)" xlink:href="#s"/><use transform="matrix(0.015190972222222224,0,0,0.015190972222222224,108.87369791666667,0)" xlink:href="#w"/><use transform="matrix(0.015190972222222224,0,0,0.015190972222222224,115.40581597222223,0)" xlink:href="#x"/><use transform="matrix(0.015190972222222224,0,0,0.015190972222222224,132.95138888888889,0)" xlink:href="#r"/><use transform="matrix(0.015190972222222224,0,0,0.015190972222222224,150.37543402777777,0)" xlink:href="#s"/></g><path fill="#999" d="M374-1189H218V212h156v168H125l-74-74v-1584l74-79h249v168" id="y"/><path fill="#999" d="M30-484c0-265 224-507 485-507 196 0 345 102 446 305H770c-63-93-148-140-255-140-177 0-319 167-319 342 0 176 146 340 319 340 93 0 176-43 249-128h193C846-77 699 21 515 21 254 21 30-224 30-484" id="z"/><path fill="#999" d="M838-484c0-173-151-342-322-342-177 0-319 167-319 342 0 176 146 340 319 340 171 0 322-167 322-340zm-807 0c0-265 224-507 485-507 260 0 487 246 487 507 0 260-229 505-487 505C255 21 31-224 31-484" id="A"/><path fill="#999" d="M66-1357h244l79 73V307l-79 73H66V212h154v-1401H66v-168" id="B"/><path fill="#999" d="M187-970l311 757c69-168 171-420 308-757h181L592 0H399L3-970h184" id="C"/><path fill="#999" d="M125-1357h167V0H125v-1357" id="D"/><path fill="#999" d="M470-144c172 0 264-158 264-340v-486h165V0H734v-96C656-18 568 21 470 21 202 21 46-186 46-463v-507h165v507c-4 167 99 319 259 319" id="E"/><g id="d"><use transform="matrix(0.015190972222222224,0,0,0.015190972222222224,0,0)" xlink:href="#y"/><use transform="matrix(0.015190972222222224,0,0,0.015190972222222224,7.382812500000001,0)" xlink:href="#z"/><use transform="matrix(0.015190972222222224,0,0,0.015190972222222224,23.302951388888893,0)" xlink:href="#A"/><use transform="matrix(0.015190972222222224,0,0,0.015190972222222224,40.84852430555556,0)" xlink:href="#B"/><use transform="matrix(0.015190972222222224,0,0,0.015190972222222224,48.611111111111114,0)" xlink:href="#x"/><use transform="matrix(0.015190972222222224,0,0,0.015190972222222224,65.42751736111111,0)" xlink:href="#C"/><use transform="matrix(0.015190972222222224,0,0,0.015190972222222224,81.33246527777777,0)" xlink:href="#A"/><use transform="matrix(0.015190972222222224,0,0,0.015190972222222224,98.87803819444444,0)" xlink:href="#D"/><use transform="matrix(0.015190972222222224,0,0,0.015190972222222224,105.44053819444444,0)" xlink:href="#E"/><use transform="matrix(0.015190972222222224,0,0,0.015190972222222224,121.69487847222223,0)" xlink:href="#s"/><use transform="matrix(0.015190972222222224,0,0,0.015190972222222224,131.44748263888889,0)" xlink:href="#w"/><use transform="matrix(0.015190972222222224,0,0,0.015190972222222224,137.97960069444443,0)" xlink:href="#A"/><use transform="matrix(0.015190972222222224,0,0,0.015190972222222224,155.5251736111111,0)" xlink:href="#r"/></g><path fill="#999" d="M439-1189c-122 0-183 48-183 143v76h183v165H256V0H89v-805H13v-165h76c-8-144 16-237 103-308 64-53 146-79 247-79v168" id="F"/><g id="e"><use transform="matrix(0.015190972222222224,0,0,0.015190972222222224,0,0)" xlink:href="#A"/><use transform="matrix(0.015190972222222224,0,0,0.015190972222222224,17.545572916666668,0)" xlink:href="#F"/></g><path fill="#999" d="M218-1357v689h516v-689h165V0H734v-503H218V0H53v-1357h165" id="G"/><path fill="#999" d="M180-1357L494-312c71-232 178-580 319-1045h172L579 0H412L6-1357h174" id="H"/><g id="f"><use transform="matrix(0.015190972222222224,0,0,0.015190972222222224,0,0)" xlink:href="#G"/><use transform="matrix(0.015190972222222224,0,0,0.015190972222222224,16.25434027777778,0)" xlink:href="#q"/><use transform="matrix(0.015190972222222224,0,0,0.015190972222222224,26.006944444444446,0)" xlink:href="#H"/></g><path fill="#999" d="M860-484c0-175-137-342-310-342-172 0-345 169-345 342s167 340 340 340c172 0 315-166 315-340zm-820 0c0-260 250-507 510-507 131 0 236 50 315 149v-515h167V0H865v-128C782-29 675 21 545 21 285 21 40-224 40-484" id="I"/><g id="g"><use transform="matrix(0.015190972222222224,0,0,0.015190972222222224,0,0)" xlink:href="#u"/><use transform="matrix(0.015190972222222224,0,0,0.015190972222222224,16.649305555555557,0)" xlink:href="#r"/><use transform="matrix(0.015190972222222224,0,0,0.015190972222222224,34.07335069444444,0)" xlink:href="#I"/></g><path fill="#999" d="M651-670c-28-91-69-228-123-411-28 91-70 228-125 411h248zM849 0L698-503H353C289-288 238-121 201 0H29l407-1357h185L1027 0H849" id="J"/><path fill="#999" d="M878-484c0-170-176-342-346-342-173 0-309 165-309 342 0 174 142 340 314 340 171 0 341-169 341-340zm165 0c0 259-247 505-506 505-129 0-236-50-319-149V0H51v-1357h167v515c79-99 183-149 314-149 260 0 511 247 511 507" id="K"/><path fill="#999" d="M68-580C-45-823 215-987 454-987c229 0 422 106 446 301l-161 34c-17-73-62-125-139-149-121-38-274-36-352 29-25 21-38 44-38 71 0 66 59 112 178 131 86 13 176 12 261 32 115 27 244 96 244 266 0 81-40 141-102 191C645 38 359 49 192-49 101-102 48-180 33-282l163-35c5 118 149 172 287 172 93 0 238-46 238-127 0-45-37-74-103-103-48-21-337-53-386-71-61-22-144-92-164-134" id="L"/><g id="h"><use transform="matrix(0.015190972222222224,0,0,0.015190972222222224,0,0)" xlink:href="#J"/><use transform="matrix(0.015190972222222224,0,0,0.015190972222222224,17.925347222222225,0)" xlink:href="#r"/><use transform="matrix(0.015190972222222224,0,0,0.015190972222222224,35.349392361111114,0)" xlink:href="#s"/><use transform="matrix(0.015190972222222224,0,0,0.015190972222222224,45.101996527777786,0)" xlink:href="#w"/><use transform="matrix(0.015190972222222224,0,0,0.015190972222222224,51.63411458333334,0)" xlink:href="#K"/><use transform="matrix(0.015190972222222224,0,0,0.015190972222222224,69.3771701388889,0)" xlink:href="#A"/><use transform="matrix(0.015190972222222224,0,0,0.015190972222222224,86.92274305555557,0)" xlink:href="#I"/><use transform="matrix(0.015190972222222224,0,0,0.015190972222222224,105.21267361111113,0)" xlink:href="#w"/><use transform="matrix(0.015190972222222224,0,0,0.015190972222222224,111.74479166666669,0)" xlink:href="#x"/><use transform="matrix(0.015190972222222224,0,0,0.015190972222222224,129.29036458333334,0)" xlink:href="#L"/></g></defs></g></svg>