<svg xmlns="http://www.w3.org/2000/svg" xmlns:xlink="http://www.w3.org/1999/xlink" xmlns:lucid="lucid" width="960" height="320"><g transform="translate(0 0)" lucid:page-tab-id="Oow0NrWrrvql"><path d="M240 160.44c0 44.2-35.82 80-80 80s-80-35.8-80-80c0-44.18 35.82-80 80-80s80 35.82 80 80z" stroke="#3aa6dd" stroke-width="10" fill-opacity="0"/><path d="M120 80.44c0 11.05-8.95 20-20 20s-20-8.95-20-20c0-11.04 8.95-20 20-20s20 8.96 20 20zM100 220.44c0 11.05-8.95 20-20 20s-20-8.95-20-20c0-11.04 8.95-20 20-20s20 8.96 20 20zM80 140.44c0 11.05-8.95 20-20 20s-20-8.95-20-20c0-11.04 8.95-20 20-20s20 8.96 20 20zM260 100.44c0 11.05-8.95 20-20 20s-20-8.95-20-20c0-11.04 8.95-20 20-20s20 8.96 20 20zM200 60.44c0 11.05-8.95 20-20 20s-20-8.95-20-20c0-11.04 8.95-20 20-20s20 8.96 20 20zM160 260.44c0 11.05-8.95 20-20 20s-20-8.95-20-20c0-11.04 8.95-20 20-20s20 8.96 20 20zM280 170.44c0 11.05-8.95 20-20 20s-20-8.95-20-20c0-11.04 8.95-20 20-20s20 8.96 20 20zM240 240.44c0 11.05-8.95 20-20 20s-20-8.95-20-20c0-11.04 8.95-20 20-20s20 8.96 20 20z" stroke="#3aa6dd" stroke-width="10" fill-opacity="0"/><path d="M225 160.44c0 35.9-29.1 65-65 65s-65-29.1-65-65 29.1-65 65-65 65 29.1 65 65z" stroke="#3aa6dd" stroke-width="5" fill-opacity="0"/><path d="M200 140.44c0 5.53-4.48 10-10 10s-10-4.47-10-10c0-5.52 4.48-10 10-10s10 4.48 10 10z" stroke="#3aa6dd" stroke-width="2" fill-opacity="0"/><path d="M195 130.44c0 5.53-4.48 10-10 10s-10-4.47-10-10c0-5.52 4.48-10 10-10s10 4.48 10 10zM140 180.44c0 5.53-4.48 10-10 10s-10-4.47-10-10c0-5.52 4.48-10 10-10s10 4.48 10 10zM187 170.44c0 5.53-4.48 10-10 10s-10-4.47-10-10c0-5.52 4.48-10 10-10s10 4.48 10 10z" stroke="#3aa6dd" stroke-width="2" fill-opacity="0"/><path d="M200 171.94c0 5.53-4.48 10-10 10s-10-4.47-10-10c0-5.52 4.48-10 10-10s10 4.48 10 10z" stroke="#3aa6dd" stroke-width="2" fill-opacity="0"/><path d="M200 185.44c0 5.53-4.48 10-10 10s-10-4.47-10-10c0-5.52 4.48-10 10-10s10 4.48 10 10zM144 134.94c0 5.53-4.48 10-10 10s-10-4.47-10-10c0-5.52 4.48-10 10-10s10 4.48 10 10z" stroke="#3aa6dd" stroke-width="2" fill-opacity="0"/><path d="M160 130.44c0 5.53-4.48 10-10 10s-10-4.47-10-10c0-5.52 4.48-10 10-10s10 4.48 10 10zM157 149.44c0 5.53-4.48 10-10 10s-10-4.47-10-10c0-5.52 4.48-10 10-10s10 4.48 10 10zM164 205.44c0 5.53-4.48 10-10 10s-10-4.47-10-10c0-5.52 4.48-10 10-10s10 4.48 10 10z" stroke="#3aa6dd" stroke-width="2" fill-opacity="0"/><path d="M368 38.78h484v101H368z" stroke="#000" stroke-opacity="0" stroke-width="4" fill="#fff" fill-opacity="0"/><use xlink:href="#a" transform="matrix(1,0,0,1,373,43.77662452524757) translate(21.960000000000008 85.33333333333334)"/><use xlink:href="#b" transform="matrix(1,0,0,1,373,43.77662452524757) translate(312.09333333333336 85.33333333333334)"/><path d="M300 124.78h620v141H300z" stroke="#000" stroke-opacity="0" stroke-width="4" fill="#fff" fill-opacity="0"/><use xlink:href="#c" transform="matrix(1,0,0,1,305,129.77662452524757) translate(9.6875 54.953125)"/><use xlink:href="#d" transform="matrix(1,0,0,1,305,129.77662452524757) translate(303.828125 54.953125)"/><use xlink:href="#e" transform="matrix(1,0,0,1,305,129.77662452524757) translate(47.890625 110.47395833333334)"/><use xlink:href="#f" transform="matrix(1,0,0,1,305,129.77662452524757) translate(111.015625 110.47395833333334)"/><use xlink:href="#g" transform="matrix(1,0,0,1,305,129.77662452524757) translate(204.16666666666669 110.47395833333334)"/><use xlink:href="#h" transform="matrix(1,0,0,1,305,129.77662452524757) translate(313.56770833333337 110.47395833333334)"/><path d="M85.6 23.97c-.5-4.13-3.9-5.97-7.62-4.1-3.72 1.85-4.3 5.68-1.3 8.55l2.6 2.48c4.46 4.24 7.47 2.73 6.74-3.36z" stroke="#99d5ca" stroke-width="4" fill-opacity="0"/><path d="M95.12 38.5c3.3 1.97 6.7.55 7.63-3.18.92-3.73-1.44-6.58-5.28-6.36l-4.87.27c-6.53.37-7.28 3.4-1.67 6.75zM75.24 38.45c-2.9 3.04-2.12 6.86 1.73 8.53 3.86 1.67 7.17-.38 7.4-4.57l.2-3.4c.36-6.1-2.77-7.45-6.97-3.03z" stroke="#99d5ca" stroke-width="4" fill-opacity="0"/><path d="M96.4 36.33c1.76.94 3.55.13 4-1.82.45-1.94-.8-3.45-2.8-3.38l-3.3.12c-3.82.14-4.18 1.72-.8 3.53zM77.2 39.56c-1.44 1.64-.98 3.68 1.02 4.54 2 .87 3.8-.2 4-2.37l.24-2.46c.34-3.53-1.3-4.23-3.63-1.57zM83.17 24.36c-.34-2.14-2.18-3.08-4.1-2.12-1.94.97-2.3 3-.78 4.56l1.78 1.85c2.5 2.57 4.05 1.78 3.5-1.75z" stroke="#99d5ca" stroke-width="4" fill-opacity="0"/><path d="M51 246.73c.06-8.4-6.3-12.9-14.2-10.04-7.9 2.85-9.92 10.38-4.5 16.8l4.34 5.13c7.83 9.25 14.24 6.92 14.32-5.2z" stroke="#99d5ca" stroke-width="5" fill-opacity="0"/><path d="M60.7 280.63c6.9 4 13.78.9 15.4-6.9 1.6-7.82-3.52-13.4-11.43-12.45l-8.38 1c-12.56 1.48-13.86 7.8-2.92 14.13z" stroke="#99d5ca" stroke-width="5" fill-opacity="0"/><path d="M24.36 269.34c-7.6 2.12-10.23 9.17-5.85 15.75 4.4 6.57 11.9 6.87 16.8.66l5.4-6.85c7.86-9.98 4.3-15.3-7.94-11.9zM63.44 276.1c3.68 1.88 7.3.1 8.07-3.96.8-4.06-1.92-7.04-6.04-6.64l-5.85.56c-7.33.7-7.96 4-1.4 7.36z" stroke="#99d5ca" stroke-width="5" fill-opacity="0"/><path d="M26.95 272.97c-3.92 1.25-5.24 5.03-2.96 8.45 2.27 3.42 6.27 3.64 8.93.5l3.88-4.6c4.8-5.66 2.96-8.43-4.12-6.17zM46.3 246.78c-.15-4.37-3.6-6.7-7.7-5.22-4.12 1.5-5.27 5.5-2.6 8.94l3 3.84c4.35 5.56 7.68 4.35 7.45-2.7z" stroke="#99d5ca" stroke-width="5" fill-opacity="0"/><path d="M276.18 232.47c-.5-4.13-3.9-5.96-7.62-4.1-3.72 1.85-4.3 5.7-1.3 8.55l2.62 2.5c4.44 4.22 7.45 2.72 6.72-3.38z" stroke="#99d5ca" stroke-width="4" fill-opacity="0"/><g><path d="M285.7 247c3.3 1.97 6.72.55 7.64-3.18.9-3.73-1.45-6.58-5.28-6.36l-4.88.28c-6.53.36-7.27 3.4-1.66 6.75z" stroke="#99d5ca" stroke-width="4" fill-opacity="0"/></g><g><path d="M265.82 246.95c-2.9 3.04-2.1 6.86 1.74 8.53 3.85 1.67 7.17-.37 7.4-4.57l.2-3.4c.35-6.1-2.77-7.44-6.97-3.03z" stroke="#99d5ca" stroke-width="4" fill-opacity="0"/></g><g><path d="M286.98 244.83c1.76.94 3.56.13 4-1.82.46-1.93-.8-3.45-2.8-3.38l-3.3.13c-3.82.14-4.18 1.72-.8 3.52z" stroke="#99d5ca" stroke-width="4" fill-opacity="0"/></g><g><path d="M267.78 248.07c-1.44 1.64-.98 3.67 1.02 4.53 2 .87 3.8-.2 4-2.36l.24-2.47c.34-3.53-1.28-4.23-3.62-1.56z" stroke="#99d5ca" stroke-width="4" fill-opacity="0"/></g><g><path d="M273.75 232.86c-.34-2.13-2.18-3.08-4.1-2.1-1.94.95-2.28 3-.78 4.54l1.8 1.85c2.48 2.57 4.05 1.8 3.5-1.75z" stroke="#99d5ca" stroke-width="4" fill-opacity="0"/></g><defs><path fill="#3aa6dd" d="M50-536c0-69 102-81 166-60l5 5c-3 73 3 134 10 201 39-6 70 7 70-30 0-47 2-105 20-136 16-29 44-31 70-50 32-1 60 8 96 5 42 113 30 310 30 462 0 19 6 35 5 56-17 22-41 43-55 65-22 14-60 24-96 25-28-55-26-151-35-231l-5-5c-33 2-74-5-95 10-3 54 6 97 5 151-30 17-45 49-76 65-30 3-76 20-105 5-14-89 3-200 0-302 0-25-10-211-10-236zm40 5c2 164 8 324 0 483 3 5 1 22 10 20 26-3 47-2 55-15 8-61 13-125 10-196 24-28 113-17 156-30 16 3 39 3 40 20 24 53 12 145 30 211 8 10 41 6 46-5 3-22 8-51 0-71 0-134-10-272-10-402 0-20-70-6-71 0-11 51 2 148-30 181-51 6-98 15-155 15-9-3-15-9-21-15v-191c-12-6-40-5-60-5" id="i"/><path fill="#3aa6dd" d="M81 2C58 4 67-54 62-73c-5-130-11-318-25-425v-50c20-22 48-34 74-50 14-1 50 6 64 5l20 35c5 54 0 321 15 395-2 24 4 48 5 70-15 28-27 60-45 85-22 11-60 7-89 10zm-4-525c-3 116 14 239 14 350 0 41 4 105 10 140 20 0 49 3 55-10 0-38 2-77-10-105l-15-380c-20-1-39 1-54 5" id="j"/><path fill="#3aa6dd" d="M92-584c38 3 81-10 100 15 4 65 11 123 30 169 9 22 8 71 20 85 4-59 29-99 30-159 11-27 7-75 35-85 36-36 118-25 165-5 19 53-20 129-35 179-16 54-29 116-50 165-25 59-28 133-75 169-23 39-89 33-150 40-29-39-35-106-60-149 0-13-4-21-10-25-12-49-32-90-40-145l5-15c-16-3-15-24-15-45-20-18-11-62-30-84-1-19-22-44 0-60 23-19 51-38 80-50zm90 533c13-1 43 11 50 0 10 2 31-4 35-5 39-115 57-232 105-349 4-29 26-65 30-94-25-5-55-6-85-5-13 76-30 161-45 234-8 39-26 72-25 124-5 8-24 25-30 5-26-45-28-126-55-179-9-67-25-123-30-194l-5-5c-29 2-69-5-90 5 45 157 81 325 145 463" id="k"/><path fill="#3aa6dd" d="M-11-10C-29-72 9-129 24-181c12-41 36-100 45-140 14-13 18-49 30-65 22-50 41-100 60-151 7-18 32-36 45-50 45 0 89-3 115 20 3 59-37 107-50 161-23 47-34 100-55 150-22 51-46 144-65 196-13 14-21 39-40 45-32 1-87 7-120 5zm200-497c-41 82-71 165-100 261-30 50-42 106-55 171-4 7-7 16-10 25h65c15-51 32-98 50-151 24-71 53-153 85-220 5-28 17-62 20-91-21-1-39 1-55 5" id="l"/><path fill="#3aa6dd" d="M147-518c0-44 38-62 65-80 5 1 66-12 75 0 33-1 63 7 65 40 40 125 55 274 100 395 1 50-18 89-25 135H322c-8-3-8-26-10-35-15-27-26-62-30-100-24 4-66 3-80 15-3 25-10 81-25 95-12 12-20 27-40 30C124-3 77-9 52 2H17c-6-62 19-98 30-155 17-89 48-180 75-265 2-37 25-63 25-100zm200 265c-33-87-23-211-70-280-37-1-74-1-100 10C145-372 98-231 62-83c-6 8-12 38-15 50 37-1 70-7 70-50 0-34 14-58 20-90 48 1 105-24 155-20 1 0 17 10 20 15 4 36 24 100 30 120h55c-13-39-29-76-30-130-8-10-11-39-20-65zm-75 15c-42-2-76 8-120 5-20-6-9-45-5-65 17-87 26-131 60-190 8-23 31 2 40 10 3 58 23 98 30 155 11 24 30 61 15 95-10 1-13-4-20-10zm-35-135c-8-12-8 15-15 20-3 15-14 35-10 55 20 0 51 5 35-20-2-16-5-43-10-55" id="m"/><path fill="#3aa6dd" d="M447-198c0 33-28 69-45 95C342-15 231 25 79 22l-10-5C58-164 41-350 54-538c2-24 31-31 50-45 20-15 32-38 66-35 86 6 147-2 186 50 10 25 29 43 36 70-3 33 9 66-11 85-5 13-24 34-25 50 28 13 62 24 71 50 30 15 20 73 20 115zM109-13c88 0 160-14 207-55 41-36 94-93 71-180-25-31-59-49-116-50-19-33 34-38 45-60 35-37 35-138-10-165-32-39-136-38-186-15-16 3-31 6-46 10 0 122 15 238 15 350 0 53 2 108 10 155zm192-235c40 31 28 105-5 130-20 28-43 54-86 60-14 7-32 12-55 10-4-64-1-128-20-180 1-12-3-29 5-35 34-25 106-29 141 0 0 0 15 10 20 15zm-35-240c30 11 37 59 20 85-16 17-33 58-66 55-17 10-51 11-60 30-26-8-19-52-30-75-14-29-10-54-10-90 34-19 115-29 146-5zm20 270c-9-17-48-35-76-35-1 42 0 82 5 120 18 0 29-8 46-10 18-15 43-39 25-75zM180-468c0 23-2 48 10 60 19-11 49-13 66-25 9-42-39-34-76-35" id="n"/><g id="a"><use transform="matrix(0.10666666666666667,0,0,0.10666666666666667,0,0)" xlink:href="#i"/><use transform="matrix(0.10666666666666667,0,0,0.10666666666666667,57.81333333333334,0)" xlink:href="#j"/><use transform="matrix(0.10666666666666667,0,0,0.10666666666666667,81.70666666666668,0)" xlink:href="#k"/><use transform="matrix(0.10666666666666667,0,0,0.10666666666666667,132.8,0)" xlink:href="#l"/><use transform="matrix(0.10666666666666667,0,0,0.10666666666666667,165.01333333333335,0)" xlink:href="#m"/><use transform="matrix(0.10666666666666667,0,0,0.10666666666666667,214.93333333333334,0)" xlink:href="#n"/></g><path fill="#3aa6dd" d="M78-11c-2-132-25-230-25-375v-160c23-24 40-55 75-60 61-9 128-5 195-5 21 30 36 62 35 115-33 5-30 35-75 35-31 0-59 4-85 15 1 21-3 46 5 60 40 3 88-14 125 0-3 49 10 110-20 135-27 13-67 12-95 25-2 21 2 42 5 60 60 4 105-7 165-5 37 19 18 103-10 120-19 22-29 31-75 35-68 6-119 32-200 25-8 0-17-11-20-20zm170-270c14-57-61-23-95-40-23-37-31-92-30-155 46-8 89-14 140-20 18-2 11-37-10-35-55 6-110 5-165 15-2 68 4 209 5 280 13 47 14 147 20 210 75 6 116-19 185-25 30 4 32-30 15-45-48 2-105-8-135 15-42 6-27-56-35-90-6-25-6-55-5-85 27-15 88-7 110-25" id="o"/><path fill="#3aa6dd" d="M82-64c-58-62-54-202-45-310 19-51 30-109 65-145 18-18 31-42 59-50 44-32 126-60 194-25 44 7 60 56 75 90 31 68 32 194 10 275-13 46-20 104-45 145-27 18-34 58-69 65-15 23-53 14-80 25-54 1-97-6-129-30zm154-485c-41-9-59 23-85 30-21 31-51 55-59 95-5 25-25 100-25 105-3 89 2 172 35 230 26 18 36 48 74 55 35-4 81 11 95-15 29-32 60-53 75-105 21-72 14-183 14-275 0-54-20-95-59-115-11-11-49-15-65-5zm30 400c-5 24-32 36-50 50-45 1-76-14-80-55-32-95-24-253 30-315 13-27 31-29 70-35 38 6 50 33 60 70-3 83 11 176-15 240-4 10-15 40-15 45zm-30-305c-42 70-58 179-35 280 5 17 19 36 30 15 14-14 26-80 30-95v-175c-1-5-13-45-25-25" id="p"/><g id="b"><use transform="matrix(0.10666666666666667,0,0,0.10666666666666667,0,0)" xlink:href="#o"/><use transform="matrix(0.10666666666666667,0,0,0.10666666666666667,41.06666666666667,0)" xlink:href="#k"/><use transform="matrix(0.10666666666666667,0,0,0.10666666666666667,89.92,0)" xlink:href="#p"/></g><path fill="#999" d="M28-165h167v-1028H28v-164h505v164H362v1028h171V0H28v-165" id="q"/><path fill="#999" d="M530-826c-179 0-312 160-312 342V0H53v-970h165v127c78-99 182-148 312-148 289 0 456 203 456 499V0H819v-484c2-203-95-342-289-342" id="r"/><path fill="#999" d="M395 0C260 4 152-110 152-245v-560H6v-165c76 0 121-15 136-44 7-13 10-65 10-156h165v200h235v165H317v560c-9 115 138 72 235 80V0H395" id="s"/><path fill="#999" d="M535-805c-177 0-317 145-317 321V0H51v-970h167v134c85-89 189-134 310-134h218v218c-83-35-153-53-211-53" id="t"/><path fill="#999" d="M484-144c91 0 275-43 275-120v-184c-54 18-283 13-339 27-84 21-172 73-172 157 0 80 79 120 236 120zm27-847c168 0 413 106 413 260v563c0 15 16 23 48 26-4 64-6 118-6 163-81-4-138-29-172-76-80 51-181 76-304 76C213 21 75-75 75-266c0-155 132-276 270-302-15-8 340-16 395-49 13-7 20-20 21-39-1 24-2 8-2-49 0-71-154-124-234-124-152 0-248 58-288 173L79-690c32-191 203-301 432-301" id="u"/><path fill="#999" d="M223-484c0 174 142 340 313 340 169 0 319-168 319-340 0-174-147-342-319-342-173 0-313 166-313 342zm798 0c0 261-225 505-485 505-129 0-235-50-318-149v516H53V-970h165v128c83-99 189-149 318-149 260 0 485 246 485 507" id="v"/><path fill="#999" d="M233-1172c-50 0-96-44-96-94 0-49 46-93 96-93s96 43 96 93c0 52-44 94-96 94zM26-970h289V0H150v-805H26v-165" id="w"/><path fill="#999" d="M816-616c-46-109-154-210-294-210-133 0-258 109-301 210h595zM31-484c0-260 230-507 491-507 282 0 495 254 487 541H196c10 148 163 311 326 306 147-5 277-104 326-215l166 28C947-150 753 16 522 21 260 27 31-223 31-484" id="x"/><g id="c"><use transform="matrix(0.026041666666666668,0,0,0.026041666666666668,0,0)" xlink:href="#q"/><use transform="matrix(0.026041666666666668,0,0,0.026041666666666668,16.71875,0)" xlink:href="#r"/><use transform="matrix(0.026041666666666668,0,0,0.026041666666666668,46.58854166666667,0)" xlink:href="#s"/><use transform="matrix(0.026041666666666668,0,0,0.026041666666666668,63.30729166666667,0)" xlink:href="#t"/><use transform="matrix(0.026041666666666668,0,0,0.026041666666666668,84.32291666666667,0)" xlink:href="#u"/><use transform="matrix(0.026041666666666668,0,0,0.026041666666666668,112.86458333333334,0)" xlink:href="#v"/><use transform="matrix(0.026041666666666668,0,0,0.026041666666666668,142.63020833333334,0)" xlink:href="#u"/><use transform="matrix(0.026041666666666668,0,0,0.026041666666666668,169.921875,0)" xlink:href="#s"/><use transform="matrix(0.026041666666666668,0,0,0.026041666666666668,186.640625,0)" xlink:href="#w"/><use transform="matrix(0.026041666666666668,0,0,0.026041666666666668,197.83854166666666,0)" xlink:href="#x"/><use transform="matrix(0.026041666666666668,0,0,0.026041666666666668,227.91666666666669,0)" xlink:href="#r"/><use transform="matrix(0.026041666666666668,0,0,0.026041666666666668,257.7864583333333,0)" xlink:href="#s"/></g><path fill="#999" d="M374-1189H218V212h156v168H125l-74-74v-1584l74-79h249v168" id="y"/><path fill="#999" d="M30-484c0-265 224-507 485-507 196 0 345 102 446 305H770c-63-93-148-140-255-140-177 0-319 167-319 342 0 176 146 340 319 340 93 0 176-43 249-128h193C846-77 699 21 515 21 254 21 30-224 30-484" id="z"/><path fill="#999" d="M838-484c0-173-151-342-322-342-177 0-319 167-319 342 0 176 146 340 319 340 171 0 322-167 322-340zm-807 0c0-265 224-507 485-507 260 0 487 246 487 507 0 260-229 505-487 505C255 21 31-224 31-484" id="A"/><path fill="#999" d="M66-1357h244l79 73V307l-79 73H66V212h154v-1401H66v-168" id="B"/><path fill="#999" d="M187-970l311 757c69-168 171-420 308-757h181L592 0H399L3-970h184" id="C"/><path fill="#999" d="M125-1357h167V0H125v-1357" id="D"/><path fill="#999" d="M470-144c172 0 264-158 264-340v-486h165V0H734v-96C656-18 568 21 470 21 202 21 46-186 46-463v-507h165v507c-4 167 99 319 259 319" id="E"/><g id="d"><use transform="matrix(0.026041666666666668,0,0,0.026041666666666668,0,0)" xlink:href="#y"/><use transform="matrix(0.026041666666666668,0,0,0.026041666666666668,12.65625,0)" xlink:href="#z"/><use transform="matrix(0.026041666666666668,0,0,0.026041666666666668,39.94791666666667,0)" xlink:href="#A"/><use transform="matrix(0.026041666666666668,0,0,0.026041666666666668,70.02604166666667,0)" xlink:href="#B"/><use transform="matrix(0.026041666666666668,0,0,0.026041666666666668,83.33333333333334,0)" xlink:href="#x"/><use transform="matrix(0.026041666666666668,0,0,0.026041666666666668,112.16145833333334,0)" xlink:href="#C"/><use transform="matrix(0.026041666666666668,0,0,0.026041666666666668,139.42708333333334,0)" xlink:href="#A"/><use transform="matrix(0.026041666666666668,0,0,0.026041666666666668,169.50520833333334,0)" xlink:href="#D"/><use transform="matrix(0.026041666666666668,0,0,0.026041666666666668,180.75520833333334,0)" xlink:href="#E"/><use transform="matrix(0.026041666666666668,0,0,0.026041666666666668,208.61979166666669,0)" xlink:href="#s"/><use transform="matrix(0.026041666666666668,0,0,0.026041666666666668,225.33854166666669,0)" xlink:href="#w"/><use transform="matrix(0.026041666666666668,0,0,0.026041666666666668,236.53645833333334,0)" xlink:href="#A"/><use transform="matrix(0.026041666666666668,0,0,0.026041666666666668,266.61458333333337,0)" xlink:href="#r"/></g><path fill="#999" d="M439-1189c-122 0-183 48-183 143v76h183v165H256V0H89v-805H13v-165h76c-8-144 16-237 103-308 64-53 146-79 247-79v168" id="F"/><g id="e"><use transform="matrix(0.026041666666666668,0,0,0.026041666666666668,0,0)" xlink:href="#A"/><use transform="matrix(0.026041666666666668,0,0,0.026041666666666668,30.078125,0)" xlink:href="#F"/></g><path fill="#999" d="M218-1357v689h516v-689h165V0H734v-503H218V0H53v-1357h165" id="G"/><path fill="#999" d="M180-1357L494-312c71-232 178-580 319-1045h172L579 0H412L6-1357h174" id="H"/><g id="f"><use transform="matrix(0.026041666666666668,0,0,0.026041666666666668,0,0)" xlink:href="#G"/><use transform="matrix(0.026041666666666668,0,0,0.026041666666666668,27.864583333333336,0)" xlink:href="#q"/><use transform="matrix(0.026041666666666668,0,0,0.026041666666666668,44.583333333333336,0)" xlink:href="#H"/></g><path fill="#999" d="M860-484c0-175-137-342-310-342-172 0-345 169-345 342s167 340 340 340c172 0 315-166 315-340zm-820 0c0-260 250-507 510-507 131 0 236 50 315 149v-515h167V0H865v-128C782-29 675 21 545 21 285 21 40-224 40-484" id="I"/><g id="g"><use transform="matrix(0.026041666666666668,0,0,0.026041666666666668,0,0)" xlink:href="#u"/><use transform="matrix(0.026041666666666668,0,0,0.026041666666666668,28.541666666666668,0)" xlink:href="#r"/><use transform="matrix(0.026041666666666668,0,0,0.026041666666666668,58.411458333333336,0)" xlink:href="#I"/></g><path fill="#999" d="M651-670c-28-91-69-228-123-411-28 91-70 228-125 411h248zM849 0L698-503H353C289-288 238-121 201 0H29l407-1357h185L1027 0H849" id="J"/><path fill="#999" d="M878-484c0-170-176-342-346-342-173 0-309 165-309 342 0 174 142 340 314 340 171 0 341-169 341-340zm165 0c0 259-247 505-506 505-129 0-236-50-319-149V0H51v-1357h167v515c79-99 183-149 314-149 260 0 511 247 511 507" id="K"/><path fill="#999" d="M68-580C-45-823 215-987 454-987c229 0 422 106 446 301l-161 34c-17-73-62-125-139-149-121-38-274-36-352 29-25 21-38 44-38 71 0 66 59 112 178 131 86 13 176 12 261 32 115 27 244 96 244 266 0 81-40 141-102 191C645 38 359 49 192-49 101-102 48-180 33-282l163-35c5 118 149 172 287 172 93 0 238-46 238-127 0-45-37-74-103-103-48-21-337-53-386-71-61-22-144-92-164-134" id="L"/><g id="h"><use transform="matrix(0.026041666666666668,0,0,0.026041666666666668,0,0)" xlink:href="#J"/><use transform="matrix(0.026041666666666668,0,0,0.026041666666666668,30.729166666666668,0)" xlink:href="#r"/><use transform="matrix(0.026041666666666668,0,0,0.026041666666666668,60.598958333333336,0)" xlink:href="#s"/><use transform="matrix(0.026041666666666668,0,0,0.026041666666666668,77.31770833333334,0)" xlink:href="#w"/><use transform="matrix(0.026041666666666668,0,0,0.026041666666666668,88.51562500000001,0)" xlink:href="#K"/><use transform="matrix(0.026041666666666668,0,0,0.026041666666666668,118.9322916666667,0)" xlink:href="#A"/><use transform="matrix(0.026041666666666668,0,0,0.026041666666666668,149.01041666666669,0)" xlink:href="#I"/><use transform="matrix(0.026041666666666668,0,0,0.026041666666666668,180.36458333333334,0)" xlink:href="#w"/><use transform="matrix(0.026041666666666668,0,0,0.026041666666666668,191.5625,0)" xlink:href="#x"/><use transform="matrix(0.026041666666666668,0,0,0.026041666666666668,221.640625,0)" xlink:href="#L"/></g></defs></g></svg>